HIERARCHY
ROOT Hips
{
	OFFSET 0.000000 0.000000 0.000000
	CHANNELS 6 Xposition Yposition Zposition Xrotation Yrotation Zrotation
	JOINT Spine
	{
		OFFSET 0.000000 0.053497 0.080245
		CHANNELS 3 Xrotation Yrotation Zrotation
		JOINT Spine1
		{
			OFFSET 0.000000 0.018579 0.105368
			CHANNELS 3 Xrotation Yrotation Zrotation
			JOINT Spine2
			{
				OFFSET 0.000000 0.009325 0.106586
				CHANNELS 3 Xrotation Yrotation Zrotation
				JOINT Spine3
				{
					OFFSET 0.000000 0.000000 0.106993
					CHANNELS 3 Xrotation Yrotation Zrotation
					JOINT Neck
					{
						OFFSET 0.000000 -0.040122 0.280858
						CHANNELS 3 Xrotation Yrotation Zrotation
						JOINT Head
						{
							OFFSET 0.000000 -0.025546 0.144881
							CHANNELS 3 Xrotation Yrotation Zrotation
							End Site
							{
								OFFSET 0.000000 0.000000 0.000000
							}
						}
					}
					JOINT RightShoulder
					{
						OFFSET -0.032541 -0.054234 0.175720
						CHANNELS 3 Xrotation Yrotation Zrotation
						JOINT RightArm
						{
							OFFSET -0.161619 0.000000 0.000000
							CHANNELS 3 Xrotation Yrotation Zrotation
							JOINT RightForeArm
							{
								OFFSET -0.257104 0.000000 0.000000
								CHANNELS 3 Xrotation Yrotation Zrotation
								JOINT RightHand
								{
									OFFSET -0.273485 0.000000 0.000000
									CHANNELS 3 Xrotation Yrotation Zrotation
									JOINT RightHandEnd
									{
										OFFSET -0.070844 0.000000 0.000000
										CHANNELS 3 Xrotation Yrotation Zrotation
										End Site
										{
											OFFSET 0.000000 0.000000 0.000000
										}
									}
									JOINT RightHandThumb1
									{
										OFFSET -0.028338 -0.047230 -0.018892
										CHANNELS 3 Xrotation Yrotation Zrotation
										End Site
										{
											OFFSET 0.000000 0.000000 0.000000
										}
									}
								}
							}
						}
					}
					JOINT LeftShoulder
					{
						OFFSET 0.032541 -0.054234 0.175720
						CHANNELS 3 Xrotation Yrotation Zrotation
						JOINT LeftArm
						{
							OFFSET 0.161619 0.000000 0.000000
							CHANNELS 3 Xrotation Yrotation Zrotation
							JOINT LeftForeArm
							{
								OFFSET 0.257104 0.000000 0.000000
								CHANNELS 3 Xrotation Yrotation Zrotation
								JOINT LeftHand
								{
									OFFSET 0.273485 0.000000 0.000000
									CHANNELS 3 Xrotation Yrotation Zrotation
									JOINT LeftHandEnd
									{
										OFFSET 0.070844 0.000000 0.000000
										CHANNELS 3 Xrotation Yrotation Zrotation
										End Site
										{
											OFFSET 0.000000 0.000000 0.000000
										}
									}
									JOINT LeftHandThumb1
									{
										OFFSET 0.028338 -0.047230 -0.018892
										CHANNELS 3 Xrotation Yrotation Zrotation
										End Site
										{
											OFFSET 0.000000 0.000000 0.000000
										}
									}
								}
							}
						}
					}
				}
			}
		}
	}
	JOINT RightUpLeg
	{
		OFFSET -0.096537 0.000000 -0.028202
		CHANNELS 3 Xrotation Yrotation Zrotation
		JOINT RightLeg
		{
			OFFSET 0.000000 0.000000 -0.431842
			CHANNELS 3 Xrotation Yrotation Zrotation
			JOINT RightFoot
			{
				OFFSET 0.000000 0.000000 -0.456398
				CHANNELS 3 Xrotation Yrotation Zrotation
				JOINT RightToeBase
				{
					OFFSET 0.000000 -0.128905 -0.046918
					CHANNELS 3 Xrotation Yrotation Zrotation
					End Site
					{
						OFFSET 0.000000 0.000000 0.000000
					}
				}
			}
		}
	}
	JOINT LeftUpLeg
	{
		OFFSET 0.096537 0.000000 -0.028202
		CHANNELS 3 Xrotation Yrotation Zrotation
		JOINT LeftLeg
		{
			OFFSET 0.000000 0.000000 -0.431842
			CHANNELS 3 Xrotation Yrotation Zrotation
			JOINT LeftFoot
			{
				OFFSET 0.000000 0.000000 -0.456398
				CHANNELS 3 Xrotation Yrotation Zrotation
				JOINT LeftToeBase
				{
					OFFSET 0.000000 -0.128905 -0.046918
					CHANNELS 3 Xrotation Yrotation Zrotation
					End Site
					{
						OFFSET 0.000000 0.000000 0.000000
					}
				}
			}
		}
	}
}
MOTION
Frames: 6
Frame Time: 0.033333
0.217998 1.726773 0.963831 -0.454100 -1.228200 4.662700 0.573600 2.311300 0.380400 0.226900 0.405100 0.008400 1.360700 -2.832700 -0.484500 -0.019600 -1.132300 1.434200 -0.561600 -2.779700 3.004000 0.926100 2.922100 6.209500 -10.571000 4.653900 1.669800 -29.109600 -4.331600 -34.301600 0.000000 0.000000 40.737200 4.380100 15.871800 -0.067300 0.000000 0.000000 0.000000 0.000000 0.000000 0.000000 -13.031000 0.801400 -5.866000 -27.625600 1.610500 37.124900 0.000000 0.000000 -41.255500 -7.138100 -12.863800 7.162800 0.000000 0.000000 0.000000 0.000000 0.000000 0.000000 1.411700 0.382500 -28.118500 6.176600 0.000000 0.000000 -7.180900 3.031000 1.789700 -3.162000 0.000000 0.000000 0.747200 -0.260600 14.461200 4.618000 0.000000 0.000000 -6.451200 21.773400 2.865300 11.870100 0.000000 0.000000 
0.218135 1.727137 0.963806 -0.454200 -1.213400 4.688400 0.577600 2.292200 0.374400 0.230100 0.402100 0.006400 1.356300 -2.831200 -0.500100 -0.018900 -1.124900 1.428700 -0.525100 -2.713300 2.924800 0.900800 2.870900 6.084200 -10.576000 4.630900 1.666800 -29.129600 -4.364200 -34.327200 0.000000 0.000000 40.745700 4.418000 15.847600 -0.046500 0.000000 0.000000 0.000000 0.000000 0.000000 0.000000 -13.035000 0.768600 -5.870500 -27.652800 1.671300 37.158000 0.000000 0.000000 -41.249200 -7.290100 -12.778700 7.115900 0.000000 0.000000 0.000000 0.000000 0.000000 0.000000 1.369100 0.386000 -28.079100 6.220400 0.000000 0.000000 -7.171600 3.043300 1.739200 -3.183600 0.000000 0.000000 0.643100 -0.281200 14.322000 4.772600 0.000000 0.000000 -6.556700 21.738400 2.974700 11.880000 0.000000 0.000000 
0.218349 1.727749 0.963770 -0.446600 -1.184200 4.729500 0.585000 2.266000 0.365200 0.236000 0.396000 0.005500 1.345700 -2.828300 -0.530700 -0.018800 -1.113600 1.418000 -0.490500 -2.636300 2.804900 0.870100 2.785000 5.912400 -10.581800 4.584100 1.666100 -29.177100 -4.407000 -34.362500 0.000000 0.000000 40.731200 4.447900 15.822200 -0.022300 0.000000 0.000000 0.000000 0.000000 0.000000 0.000000 -13.036500 0.721300 -5.889300 -27.500700 1.790200 37.209700 0.000000 0.000000 -41.235000 -7.136300 -12.724600 7.103400 0.000000 0.000000 0.000000 0.000000 0.000000 0.000000 1.296500 0.381400 -28.015900 6.275600 0.000000 0.000000 -7.149300 3.067700 1.656000 -3.230200 0.000000 0.000000 0.475000 -0.318800 14.153200 5.005100 0.000000 0.000000 -6.699600 21.698600 3.106300 11.901600 0.000000 0.000000 
0.218562 1.728460 0.963742 -0.407200 -1.146000 4.758900 0.589200 2.242300 0.355300 0.236800 0.393800 0.005100 1.325700 -2.826500 -0.552900 -0.022300 -1.105500 1.410100 -0.506300 -2.602700 2.694500 0.851900 2.704900 5.772800 -10.566500 4.529200 1.659300 -29.173100 -4.457500 -34.378300 0.000000 0.000000 40.659000 4.437100 15.779700 -0.012700 0.000000 0.000000 0.000000 0.000000 0.000000 0.000000 -12.997100 0.682200 -5.896500 -27.092500 1.942900 37.208100 0.000000 0.000000 -41.185600 -6.482300 -12.615100 7.119600 0.000000 0.000000 0.000000 0.000000 0.000000 0.000000 1.189600 0.367100 -27.941000 6.316500 0.000000 0.000000 -7.118900 3.093800 1.571100 -3.279400 0.000000 0.000000 0.274600 -0.364700 14.047400 5.228800 0.000000 0.000000 -6.820300 21.696000 3.195200 11.920600 0.000000 0.000000 
0.218758 1.729240 0.963722 -0.327300 -1.103200 4.765700 0.582100 2.227000 0.346600 0.235900 0.396100 0.005400 1.304900 -2.834900 -0.549500 -0.032700 -1.105200 1.414100 -0.593700 -2.614300 2.608100 0.854000 2.666600 5.677900 -10.530600 4.496900 1.643200 -29.065800 -4.506800 -34.379100 0.000000 0.000000 40.522200 4.431600 15.672300 -0.019400 0.000000 0.000000 0.000000 0.000000 0.000000 0.000000 -12.912300 0.640000 -5.873100 -26.682500 2.078200 37.154600 0.000000 0.000000 -41.109000 -5.814300 -12.317700 7.085100 0.000000 0.000000 0.000000 0.000000 0.000000 0.000000 1.047500 0.347800 -27.875200 6.332100 0.000000 0.000000 -7.078500 3.108800 1.516500 -3.305600 0.000000 0.000000 0.054400 -0.411100 13.996100 5.406200 0.000000 0.000000 -6.905000 21.730100 3.247100 11.927000 0.000000 0.000000 
0.218994 1.730174 0.963719 -0.224600 -1.061800 4.769500 0.571400 2.216600 0.338400 0.234100 0.400600 0.006200 1.299300 -2.855900 -0.531400 -0.046700 -1.109000 1.427300 -0.724600 -2.631200 2.528700 0.871400 2.669400 5.594300 -10.505400 4.492100 1.646000 -28.944000 -4.503400 -34.418000 0.000000 0.000000 40.370300 4.455100 15.523200 -0.028900 0.000000 0.000000 0.000000 0.000000 0.000000 0.000000 -12.843300 0.588700 -5.847200 -26.586400 2.123400 37.156100 0.000000 0.000000 -41.080800 -5.726300 -11.968100 6.973600 0.000000 0.000000 0.000000 0.000000 0.000000 0.000000 0.880800 0.335700 -27.860300 6.334100 0.000000 0.000000 -7.025500 3.108000 1.515100 -3.305200 0.000000 0.000000 -0.182200 -0.446600 13.934000 5.549300 0.000000 0.000000 -6.966500 21.750900 3.299700 11.949500 0.000000 0.000000 
